<?xml version="1.0" encoding="UTF-8"?>
<svg width="4001px" height="484px" viewBox="0 0 4001 484" version="1.1" xmlns="http://www.w3.org/2000/svg" xmlns:xlink="http://www.w3.org/1999/xlink">
    <!-- Generator: Sketch 47.1 (45422) - http://www.bohemiancoding.com/sketch -->
    <title>Fill 1</title>
    <desc>Created with Sketch.</desc>
    <defs></defs>
    <g id="Welcome" stroke="none" stroke-width="1" fill="none" fill-rule="evenodd">
        <path d="M4000.325,23.5496361 C3860.325,11.5496361 3692.325,-8.4503639 3535.323,3.8656361 C3364.691,17.2516361 3185.841,71.3626361 3026.848,80.3616361 C2867.856,89.3616361 2747.862,72.8626361 2636.868,68.3626361 C2525.874,63.8626361 2256.264,38.1146361 2128.144,40.9066361 C2000.025,43.6986361 1884.318,57.7826361 1839.636,64.7016361 C1794.952,71.6196361 1695.853,69.7706361 1650.607,69.3196361 C1605.362,68.8686361 1538.666,65.8816361 1428.255,53.7706361 C1317.845,41.6596361 1208.653,32.0096361 1005.869,40.9066361 C814.459,47.3636361 731.963,65.3626361 607.47,57.8626361 C482.976,50.3636361 311.984,14.3656361 0,60.8626361 L0,483.549636 L3992.325,483.549636 C3992.325,483.549636 4000.325,-0.450363905 4000.325,23.5496361" id="Fill-1" fill="#F4F4F4"></path>
    </g>
</svg>