<?xml version="1.0" encoding="UTF-8"?>
<svg width="123px" height="59px" viewBox="0 0 123 59" version="1.1" xmlns="http://www.w3.org/2000/svg" xmlns:xlink="http://www.w3.org/1999/xlink">
    <!-- Generator: Sketch 47.1 (45422) - http://www.bohemiancoding.com/sketch -->
    <title>Page 1</title>
    <desc>Created with Sketch.</desc>
    <defs>
        <polygon id="path-1" points="0 58.3108 122.477 58.3108 122.477 -0.0002 0 -0.0002"></polygon>
    </defs>
    <g id="Welcome" stroke="none" stroke-width="1" fill="none" fill-rule="evenodd">
        <g id="Desktop-HD-Copy-7" transform="translate(-910.000000, -5134.000000)">
            <g id="Page-1" transform="translate(910.000000, 5134.000000)">
                <path d="M10.289,30.0226 C11.039,30.4836 11.687,31.1076 12.212,31.8766 C12.74,32.6516 13.008,33.6246 13.008,34.7666 C13.008,36.3816 12.459,37.6896 11.377,38.6536 C10.298,39.6156 8.735,40.1026 6.732,40.1026 C5.438,40.1026 4.27,39.9156 3.261,39.5456 C2.247,39.1746 1.442,38.6506 0.87,37.9866 C0.292,37.3176 0,36.5426 0,35.6796 C0,34.7436 0.303,33.9606 0.901,33.3536 C1.5,32.7456 2.26,32.4376 3.161,32.4376 C3.38,32.4376 3.539,32.4746 3.648,32.5496 C3.794,32.6526 3.825,32.7746 3.825,32.8596 C3.825,32.9136 3.805,33.0016 3.566,33.3586 C3.41,33.5946 3.268,33.8726 3.147,34.1856 C3.027,34.4936 2.966,34.8696 2.966,35.3036 C2.966,36.2166 3.315,36.9676 4.003,37.5356 C4.697,38.1076 5.616,38.3986 6.732,38.3986 C7.741,38.3986 8.564,38.1356 9.178,37.6166 C9.787,37.1016 10.096,36.3776 10.096,35.4646 C10.096,34.7206 9.904,34.0816 9.524,33.5636 C9.141,33.0406 8.658,32.6066 8.091,32.2756 C7.515,31.9386 6.719,31.5426 5.725,31.0986 C4.581,30.5806 3.651,30.0996 2.96,29.6686 C2.262,29.2336 1.66,28.6466 1.172,27.9216 C0.679,27.1926 0.43,26.2706 0.43,25.1806 C0.43,24.2546 0.655,23.3756 1.1,22.5676 C1.546,21.7576 2.223,21.0986 3.113,20.6086 C4,20.1196 5.101,19.8716 6.383,19.8716 C7.553,19.8716 8.617,20.0406 9.545,20.3746 C10.479,20.7096 11.217,21.1896 11.735,21.7996 C12.259,22.4156 12.524,23.1286 12.524,23.9186 C12.524,24.8536 12.24,25.6356 11.679,26.2426 C11.116,26.8516 10.399,27.1606 9.552,27.1606 C9.003,27.1606 8.888,26.9306 8.888,26.7376 C8.888,26.6856 8.906,26.5986 9.13,26.2296 C9.278,25.9866 9.411,25.7086 9.525,25.4006 C9.637,25.1006 9.693,24.7286 9.693,24.2946 C9.693,23.4886 9.389,22.8286 8.789,22.3316 C8.184,21.8296 7.374,21.5756 6.383,21.5756 C5.36,21.5756 4.562,21.8676 4.012,22.4436 C3.46,23.0216 3.181,23.7346 3.181,24.5636 C3.181,25.2006 3.363,25.7576 3.724,26.2196 C4.09,26.6906 4.55,27.0886 5.091,27.4036 C5.643,27.7236 6.417,28.1106 7.392,28.5536 C8.571,29.0716 9.546,29.5656 10.289,30.0226 Z" id="Fill-1" fill="#080202"></path>
                <path d="M27.767,35.6798 C27.591,36.3288 27.401,36.8218 27.202,37.1438 C27.008,37.4538 26.741,37.6748 26.405,37.8008 C26.06,37.9298 25.566,37.9958 24.937,37.9958 L22.037,37.9958 C21.571,37.9958 21.218,37.9448 20.99,37.8438 C20.774,37.7468 20.629,37.5748 20.548,37.3138 C20.462,37.0398 20.418,36.6168 20.418,36.0548 L20.418,30.7048 L22.6,30.7048 C23.564,30.7048 24.249,30.8048 24.636,31.0018 C25.011,31.1938 25.278,31.5838 25.431,32.1598 L25.619,32.8838 L26.702,32.5008 L26.702,27.7798 L26.036,27.4128 L25.768,27.7808 C25.457,28.2138 25.138,28.5248 24.82,28.7048 C24.506,28.8838 24.139,28.9738 23.728,28.9738 L20.418,28.9738 L20.418,23.9188 C20.418,23.3578 20.462,22.9348 20.548,22.6598 C20.629,22.3998 20.774,22.2268 20.99,22.1308 C21.218,22.0298 21.571,21.9778 22.037,21.9778 L24.642,21.9778 C25.27,21.9778 25.765,22.0438 26.11,22.1738 C26.445,22.2988 26.712,22.5198 26.906,22.8298 C27.105,23.1518 27.296,23.6448 27.471,24.2928 L27.66,25.0158 L28.743,24.6338 L28.743,19.7358 L28.216,19.3078 L27.669,19.7038 C27.188,20.0648 26.179,20.2468 24.668,20.2468 L16.405,20.2468 L15.976,20.7738 L16.372,21.3208 C16.809,21.8988 17.12,22.5198 17.295,23.1658 C17.471,23.8188 17.56,24.6858 17.56,25.7448 L17.56,36.2428 C17.56,36.9878 17.458,37.5108 17.256,37.7968 C17.056,38.0798 16.631,38.3208 15.995,38.5098 L15.329,38.6998 L15.683,39.7258 L27.058,39.7258 C27.578,39.7258 27.931,39.8408 28.105,40.0618 L28.371,40.4288 L29.038,40.0618 L29.038,35.3398 L27.955,34.9578 L27.767,35.6798 Z" id="Fill-3" fill="#080202"></path>
                <path d="M42.1152,30.5314 L37.3192,30.5314 L39.6782,23.4264 L42.1152,30.5314 Z M47.8912,37.7384 C47.5592,37.3194 47.2492,36.6974 46.9682,35.8884 L41.5712,20.3144 L41.5482,20.2474 L36.2232,20.2474 L35.8412,21.3294 L36.5652,21.5184 C36.9762,21.6214 37.2722,21.7584 37.4472,21.9244 C37.6152,22.0844 37.6982,22.3064 37.6982,22.6034 C37.6982,22.8764 37.6002,23.3084 37.4072,23.8854 L33.1922,36.0224 C32.9122,36.8274 32.6132,37.3924 32.3032,37.7024 C31.9952,38.0114 31.4862,38.2644 30.7912,38.4554 L30.0682,38.6444 L30.4502,39.7264 L35.4982,39.7264 L36.0962,39.2224 L35.8192,38.6674 C35.5772,38.2014 35.4542,37.6664 35.4542,37.0754 C35.4542,36.4444 35.6602,35.5064 36.0672,34.2874 L36.6892,32.3964 L42.7472,32.3964 L44.0132,36.0874 C44.2052,36.6654 44.3032,37.0974 44.3032,37.3714 C44.3032,37.6674 44.2212,37.8894 44.0522,38.0504 C43.8782,38.2164 43.5812,38.3524 43.1702,38.4554 L42.4472,38.6444 L42.8282,39.7264 L48.9882,39.7264 L49.4322,39.1804 L49.3512,39.1174 C48.7162,38.6234 48.2252,38.1594 47.8912,37.7384 L47.8912,37.7384 Z" id="Fill-5" fill="#080202"></path>
                <path d="M62.0913,19.7037 C61.6103,20.0647 60.6003,20.2467 59.0903,20.2467 L51.0943,20.2467 L50.6673,20.7737 L51.0623,21.3207 C51.5003,21.8987 51.8103,22.5197 51.9863,23.1657 C52.1613,23.8177 52.2503,24.6847 52.2503,25.7447 L52.2503,34.2287 C52.2503,35.2887 52.1613,36.1567 51.9863,36.8077 C51.8103,37.4547 51.5003,38.0757 51.0613,38.6547 L50.6673,39.2007 L51.0943,39.7257 L57.0933,39.7257 L57.4753,38.6437 L56.7553,38.4557 C56.1003,38.2667 55.6573,38.0177 55.4393,37.7147 C55.2193,37.4117 55.1093,36.8537 55.1093,36.0557 L55.1093,30.9727 L57.0223,30.9727 C57.9853,30.9727 58.6703,31.0737 59.0583,31.2707 C59.4323,31.4617 59.6993,31.8517 59.8523,32.4287 L60.0413,33.1517 L61.1233,32.7697 L61.1233,28.0487 L60.4573,27.6817 L60.1903,28.0487 C59.8783,28.4817 59.5593,28.7927 59.2423,28.9737 C58.9273,29.1517 58.5603,29.2427 58.1503,29.2427 L55.1093,29.2427 L55.1093,23.9187 C55.1093,23.3577 55.1523,22.9337 55.2383,22.6597 C55.3203,22.3997 55.4643,22.2267 55.6803,22.1307 C55.9083,22.0297 56.2603,21.9777 56.7273,21.9777 L59.0633,21.9777 C59.6923,21.9777 60.1863,22.0437 60.5313,22.1737 C60.8663,22.2987 61.1343,22.5197 61.3273,22.8297 C61.5273,23.1517 61.7173,23.6447 61.8933,24.2927 L62.0823,25.0157 L63.1643,24.6337 L63.1643,19.7357 L62.6373,19.3077 L62.0913,19.7037 Z" id="Fill-7" fill="#080202"></path>
                <path d="M79.9873,30.0944 C79.9873,31.6324 79.7453,33.0434 79.2693,34.2874 C78.7943,35.5264 78.0953,36.5194 77.1923,37.2394 C76.2933,37.9544 75.2163,38.3184 73.9923,38.3184 C72.7683,38.3184 71.7103,37.9644 70.8463,37.2664 C69.9793,36.5654 69.3163,35.5954 68.8773,34.3834 C68.4363,33.1654 68.2123,31.7674 68.2123,30.2284 C68.2123,28.6374 68.4543,27.1674 68.9313,25.8594 C69.4063,24.5574 70.1053,23.5094 71.0093,22.7464 C71.9083,21.9874 72.9933,21.6024 74.2343,21.6024 C75.6133,21.6024 76.7453,22.0484 77.5993,22.9274 C78.4603,23.8154 79.0793,24.9214 79.4403,26.2144 C79.8033,27.5154 79.9873,28.8214 79.9873,30.0944 M79.0553,21.2174 C77.7113,20.3244 76.0443,19.8714 74.1003,19.8714 C72.1543,19.8714 70.4873,20.3244 69.1443,21.2174 C67.8003,22.1104 66.7803,23.3354 66.1133,24.8594 C65.4493,26.3764 65.1123,28.1114 65.1123,30.0134 C65.1123,31.9164 65.4493,33.6474 66.1133,35.1564 C66.7813,36.6714 67.8003,37.8864 69.1443,38.7704 C70.4873,39.6544 72.1543,40.1024 74.1003,40.1024 C76.0443,40.1024 77.7113,39.6544 79.0543,38.7704 C80.3983,37.8874 81.4223,36.6714 82.0983,35.1564 C82.7723,33.6464 83.1143,31.9164 83.1143,30.0134 C83.1143,28.1114 82.7723,26.3774 82.0983,24.8584 C81.4223,23.3354 80.3983,22.1104 79.0553,21.2174" id="Fill-9" fill="#080202"></path>
                <path d="M99.6684,30.0944 C99.6684,31.6324 99.4264,33.0434 98.9504,34.2874 C98.4754,35.5264 97.7764,36.5194 96.8734,37.2394 C95.9744,37.9544 94.8974,38.3184 93.6734,38.3184 C92.4494,38.3184 91.3914,37.9644 90.5274,37.2664 C89.6604,36.5654 88.9974,35.5954 88.5584,34.3834 C88.1174,33.1654 87.8934,31.7674 87.8934,30.2284 C87.8934,28.6374 88.1354,27.1674 88.6124,25.8594 C89.0874,24.5574 89.7864,23.5094 90.6904,22.7464 C91.5894,21.9874 92.6744,21.6024 93.9154,21.6024 C95.2944,21.6024 96.4264,22.0484 97.2804,22.9274 C98.1414,23.8154 98.7604,24.9214 99.1214,26.2144 C99.4844,27.5154 99.6684,28.8214 99.6684,30.0944 M98.7364,21.2174 C97.3924,20.3244 95.7254,19.8714 93.7814,19.8714 C91.8364,19.8714 90.1684,20.3244 88.8254,21.2174 C87.4814,22.1104 86.4614,23.3354 85.7944,24.8594 C85.1304,26.3764 84.7934,28.1114 84.7934,30.0134 C84.7934,31.9164 85.1304,33.6474 85.7944,35.1564 C86.4624,36.6714 87.4814,37.8864 88.8254,38.7704 C90.1684,39.6544 91.8364,40.1024 93.7814,40.1024 C95.7254,40.1024 97.3924,39.6544 98.7354,38.7704 C100.0794,37.8874 101.1034,36.6714 101.7794,35.1564 C102.4534,33.6464 102.7954,31.9164 102.7954,30.0134 C102.7954,28.1114 102.4534,26.3774 101.7794,24.8584 C101.1034,23.3354 100.0794,22.1104 98.7364,21.2174" id="Fill-11" fill="#080202"></path>
                <path d="M119.3496,29.9601 C119.3496,35.3991 117.0796,38.1571 112.6026,38.1571 C111.7556,38.1571 111.0686,37.9261 110.5616,37.4711 C110.0576,37.0191 109.8036,36.1631 109.8036,34.9271 L109.8036,22.7101 C109.8036,21.9571 110.6546,21.5751 112.3346,21.5751 C113.8796,21.5751 115.1926,21.9661 116.2356,22.7371 C117.2806,23.5101 118.0686,24.5441 118.5786,25.8091 C119.0896,27.0791 119.3496,28.4761 119.3496,29.9601 M119.9946,22.6851 C118.3446,20.8181 115.6046,19.8721 111.8506,19.8721 C110.5796,19.8721 109.2456,19.9941 107.8866,20.2351 C106.5256,20.4771 105.4006,20.7541 104.5406,21.0591 L104.4496,21.0911 L104.8246,22.2471 L106.4536,22.2471 C106.6386,22.2471 106.7666,22.2861 106.8366,22.3611 C106.9076,22.4391 106.9446,22.5881 106.9446,22.7911 L106.9446,36.3501 C106.9446,37.0021 106.8086,37.4811 106.5406,37.7731 C106.2686,38.0711 105.8506,38.3011 105.3016,38.4551 L104.5786,38.6441 L104.9606,39.7261 L113.4626,39.7261 C115.4066,39.7261 117.0726,39.2961 118.4156,38.4491 C119.7596,37.6021 120.7836,36.4311 121.4606,34.9701 C122.1346,33.5131 122.4766,31.8451 122.4766,30.0141 C122.4766,27.0131 121.6416,24.5471 119.9946,22.6851" id="Fill-13" fill="#080202"></path>
                <path d="M12.0761,11.9957 C11.9501,11.8177 11.8861,11.4857 11.8861,11.0107 L11.8861,7.4937 L17.3711,7.4937 L17.3711,10.8887 C17.3711,11.3977 17.3021,11.7527 17.1641,11.9427 C17.0271,12.1327 16.7471,12.2887 16.3341,12.4087 L15.8281,12.5407 L16.0971,13.3017 L20.4991,13.3017 L20.7471,12.5777 L20.2821,12.4447 C19.8771,12.3247 19.6091,12.1737 19.4831,11.9957 C19.3571,11.8167 19.2931,11.4847 19.2931,11.0107 L19.2931,4.2117 C19.2931,3.5287 19.3501,2.9697 19.4631,2.5507 C19.5751,2.1387 19.7741,1.7407 20.0561,1.3667 L20.3271,0.9917 L20.0231,0.6167 L16.0971,0.6167 L15.8281,1.3777 L16.3311,1.5087 C16.7471,1.6287 17.0281,1.7867 17.1641,1.9757 C17.3021,2.1657 17.3711,2.5197 17.3711,3.0297 L17.3711,6.2327 L11.8861,6.2327 L11.8861,4.2117 C11.8861,3.5257 11.9431,2.9677 12.0561,2.5507 C12.1681,2.1367 12.3671,1.7397 12.6501,1.3667 L12.9201,0.9917 L12.6161,0.6167 L8.6891,0.6167 L8.4211,1.3777 L8.9241,1.5087 C9.3401,1.6287 9.6211,1.7867 9.7581,1.9757 C9.8951,2.1657 9.9641,2.5197 9.9641,3.0297 L9.9641,10.8887 C9.9641,11.3977 9.8951,11.7527 9.7581,11.9427 C9.6201,12.1327 9.3401,12.2887 8.9261,12.4087 L8.4211,12.5407 L8.6891,13.3017 L13.0921,13.3017 L13.3411,12.5777 L12.8751,12.4447 C12.4711,12.3247 12.2021,12.1737 12.0761,11.9957" id="Fill-15" fill="#080202"></path>
                <path d="M30.5346,13.7662 L31.0126,13.5042 L31.0126,10.4002 L30.2506,10.1322 L30.1196,10.6362 C30.0066,11.0532 29.8856,11.3692 29.7576,11.5752 C29.6356,11.7722 29.4726,11.9062 29.2606,11.9862 C29.0396,12.0682 28.7236,12.1102 28.3216,12.1102 L26.4436,12.1102 C26.1456,12.1102 25.9226,12.0782 25.7796,12.0142 C25.6496,11.9562 25.5626,11.8512 25.5136,11.6922 C25.4586,11.5202 25.4306,11.2492 25.4306,10.8882 L25.4306,7.4592 L26.8076,7.4592 C27.4266,7.4592 27.8646,7.5222 28.1106,7.6482 C28.3436,7.7672 28.5106,8.0122 28.6066,8.3752 L28.7386,8.8812 L29.4996,8.6122 L29.4996,5.5092 L29.0226,5.2462 L28.8306,5.5102 C28.6326,5.7862 28.4296,5.9842 28.2286,6.0982 C28.0296,6.2102 27.7976,6.2682 27.5386,6.2682 L25.4306,6.2682 L25.4306,3.0292 C25.4306,2.6682 25.4586,2.3982 25.5136,2.2242 C25.5626,2.0672 25.6496,1.9622 25.7796,1.9042 C25.9236,1.8412 26.1466,1.8082 26.4436,1.8082 L28.1296,1.8082 C28.5336,1.8082 28.8486,1.8502 29.0686,1.9322 C29.2776,2.0112 29.4456,2.1492 29.5656,2.3432 C29.6936,2.5492 29.8156,2.8652 29.9286,3.2812 L30.0596,3.7862 L30.8206,3.5172 L30.8206,0.3042 L30.4466,0.0002 L30.0696,0.2722 C29.7636,0.5002 29.1176,0.6172 28.1476,0.6172 L22.7796,0.6172 L22.4746,0.9922 L22.7466,1.3692 C23.0276,1.7392 23.2266,2.1372 23.3386,2.5512 C23.4516,2.9702 23.5096,3.5292 23.5096,4.2122 L23.5096,11.0102 C23.5096,11.4852 23.4446,11.8172 23.3196,11.9952 C23.1936,12.1732 22.9256,12.3242 22.5206,12.4442 L22.0546,12.5772 L22.3036,13.3012 L29.6946,13.3012 C30.0196,13.3012 30.2396,13.3702 30.3446,13.5032 L30.5346,13.7662 Z" id="Fill-17" fill="#080202"></path>
                <path d="M33.4848,1.982 C33.5918,1.982 33.6688,2.004 33.7058,2.045 C33.7348,2.076 33.7668,2.145 33.7668,2.299 L33.7668,10.888 C33.7668,11.387 33.6968,11.743 33.5588,11.945 C33.4228,12.144 33.1428,12.3 32.7288,12.409 L32.2238,12.541 L32.4928,13.301 L36.4188,13.301 L36.7228,12.926 L36.4518,12.551 C36.1708,12.169 35.9708,11.767 35.8598,11.357 C35.7458,10.945 35.6888,10.39 35.6888,9.706 L35.6888,2.247 C35.6888,2.074 35.6888,1.547 36.9108,1.547 C37.8158,1.547 38.5258,1.809 39.0198,2.325 C39.5148,2.842 39.7658,3.519 39.7658,4.334 C39.7658,5.126 39.5298,5.766 39.0648,6.236 C38.5998,6.707 37.9388,6.946 37.1018,6.946 C36.8788,6.946 36.6978,6.926 36.5638,6.889 C36.3568,6.831 36.2848,6.824 36.2498,6.824 C36.1208,6.824 36.0188,6.883 35.9548,6.996 C35.8988,7.091 35.8708,7.208 35.8708,7.341 C35.8708,7.501 35.9398,7.715 36.2668,7.836 C36.6278,7.971 36.8868,8.09 37.0368,8.19 C37.1768,8.283 37.2968,8.439 37.3938,8.654 L38.7148,11.453 C39.0538,12.168 39.4068,12.699 39.7628,13.031 C40.1288,13.372 40.6128,13.545 41.2048,13.545 C41.8198,13.545 42.3818,13.301 42.8748,12.821 L42.9308,12.766 L42.5398,12.101 L42.4508,12.163 C42.2378,12.312 42.0288,12.388 41.8308,12.388 C41.6178,12.388 41.4248,12.225 41.2598,11.905 L39.6418,8.616 C39.4708,8.294 39.2818,8.04 39.0788,7.858 C39.9288,7.62 40.5888,7.192 41.0418,6.584 C41.5278,5.932 41.7748,5.157 41.7748,4.281 C41.7748,3.132 41.3408,2.182 40.4878,1.458 C39.6378,0.738 38.3288,0.374 36.5968,0.374 C35.8408,0.374 35.0428,0.453 34.2218,0.61 C33.4018,0.767 32.7318,0.947 32.2308,1.146 L32.1438,1.18 L32.4028,1.982 L33.4848,1.982 Z" id="Fill-19" fill="#080202"></path>
                <path d="M54.5478,1.3727 L54.8618,0.9967 L54.5528,0.6167 L51.1318,0.6167 L50.8628,1.3777 L51.3668,1.5087 C51.8218,1.6357 52.0538,1.9867 52.0758,2.5777 C52.0758,2.9477 51.9658,3.4807 51.7508,4.1637 L49.4108,11.4327 L46.6718,2.9977 C46.5488,2.6277 46.4858,2.3517 46.4858,2.1777 C46.4858,1.9957 46.5358,1.8607 46.6378,1.7637 C46.7458,1.6607 46.9328,1.5747 47.1938,1.5097 L47.6988,1.3777 L47.4298,0.6167 L43.4008,0.6167 L43.0778,1.0127 L43.1608,1.0757 C43.5818,1.3937 43.9038,1.6927 44.1158,1.9617 C44.3288,2.2297 44.5218,2.6287 44.6918,3.1487 L48.0818,13.2327 L48.1048,13.3017 L50.2318,13.3017 L53.6098,3.0777 C53.8138,2.4447 54.1288,1.8707 54.5478,1.3727" id="Fill-21" fill="#080202"></path>
                <path d="M63.7114,10.6363 C63.5984,11.0533 63.4764,11.3693 63.3484,11.5743 C63.2264,11.7723 63.0644,11.9063 62.8524,11.9863 C62.6314,12.0683 62.3154,12.1103 61.9134,12.1103 L60.0344,12.1103 C59.7374,12.1103 59.5144,12.0773 59.3714,12.0143 C59.2414,11.9563 59.1544,11.8513 59.1054,11.6923 C59.0504,11.5203 59.0224,11.2493 59.0224,10.8883 L59.0224,7.4593 L60.3994,7.4593 C61.0184,7.4593 61.4564,7.5223 61.7024,7.6483 C61.9354,7.7673 62.1024,8.0113 62.1984,8.3753 L62.3304,8.8813 L63.0904,8.6123 L63.0904,5.5093 L62.6144,5.2463 L62.4224,5.5103 C62.2244,5.7853 62.0214,5.9843 61.8204,6.0983 C61.6214,6.2103 61.3894,6.2683 61.1304,6.2683 L59.0224,6.2683 L59.0224,3.0293 C59.0224,2.6683 59.0504,2.3983 59.1054,2.2243 C59.1544,2.0673 59.2414,1.9623 59.3714,1.9043 C59.5154,1.8413 59.7384,1.8083 60.0344,1.8083 L61.7214,1.8083 C62.1244,1.8083 62.4404,1.8503 62.6594,1.9323 C62.8694,2.0113 63.0374,2.1493 63.1574,2.3433 C63.2854,2.5493 63.4074,2.8653 63.5204,3.2813 L63.6514,3.7863 L64.4124,3.5173 L64.4124,0.3043 L64.0384,0.0003 L63.6614,0.2723 C63.3564,0.5003 62.7094,0.6163 61.7394,0.6163 L56.3704,0.6163 L56.0664,0.9913 L56.3384,1.3683 C56.6194,1.7393 56.8184,2.1363 56.9304,2.5513 C57.0434,2.9693 57.1014,3.5293 57.1014,4.2123 L57.1014,11.0103 C57.1014,11.4853 57.0364,11.8173 56.9104,11.9953 C56.7854,12.1733 56.5164,12.3233 56.1124,12.4443 L55.6464,12.5773 L55.8954,13.3013 L63.2864,13.3013 C63.6114,13.3013 63.8304,13.3703 63.9364,13.5033 L64.1264,13.7663 L64.6034,13.5043 L64.6034,10.4003 L63.8424,10.1323 L63.7114,10.6363 Z" id="Fill-23" fill="#080202"></path>
                <path d="M66.5107,1.9435 C66.7487,2.2505 67.0267,2.6845 67.3377,3.2355 L70.1057,8.0985 L70.1057,9.7065 C70.1057,10.3785 70.0427,10.9265 69.9187,11.3375 C69.7947,11.7495 69.5897,12.1575 69.3077,12.5515 L69.0367,12.9265 L69.3417,13.3015 L73.2677,13.3015 L73.5367,12.5405 L73.0317,12.4085 C72.6157,12.2995 72.3297,12.1425 72.1817,11.9425 C72.0337,11.7405 71.9577,11.3865 71.9577,10.8885 L71.9577,7.9595 L74.6407,3.2005 C75.0517,2.4685 75.4637,1.8535 75.8647,1.3725 L76.1777,0.9965 L75.8697,0.6165 L72.4477,0.6165 L72.1787,1.3775 L72.6817,1.5085 C72.8597,1.5615 73.0167,1.6625 73.1477,1.8095 C73.2777,1.9545 73.3407,2.1265 73.3407,2.3345 C73.3407,2.5255 73.2737,2.7485 73.1437,2.9995 L71.2657,6.3555 L69.4747,3.2215 L69.1797,2.7265 C68.9897,2.4085 68.9497,2.2535 68.9497,2.1775 C68.9497,1.9955 68.9997,1.8605 69.1017,1.7635 C69.2107,1.6605 69.3967,1.5745 69.6577,1.5095 L70.1627,1.3775 L69.8947,0.6165 L65.8647,0.6165 L65.5427,1.0115 L65.6237,1.0745 C65.9747,1.3465 66.2727,1.6385 66.5107,1.9435" id="Fill-25" fill="#080202"></path>
                <path d="M88.5366,5.7081 C88.1236,6.1481 87.5316,6.3721 86.7756,6.3721 C86.5416,6.3721 86.3546,6.3531 86.2206,6.3151 C86.0156,6.2571 85.9446,6.2501 85.9066,6.2501 C85.8026,6.2501 85.5626,6.2901 85.5626,6.6631 C85.5626,6.8761 85.6726,7.0401 85.8816,7.1371 C86.0176,7.1991 86.1916,7.2521 86.4156,7.3001 C86.6356,7.3481 86.8506,7.3721 87.0536,7.3721 C87.5916,7.3721 88.0666,7.4791 88.4676,7.6911 C88.8666,7.9011 89.1786,8.1851 89.3936,8.5331 C89.6086,8.8811 89.7186,9.2701 89.7186,9.6881 C89.7186,10.4351 89.4936,11.0461 89.0506,11.5061 C88.6086,11.9641 87.9896,12.1971 87.2106,12.1971 C86.7126,12.1971 86.2766,12.0601 85.9136,11.7911 C85.5596,11.5281 85.3806,10.9321 85.3806,10.0191 L85.3806,2.2471 C85.3806,2.0741 85.3806,1.5471 86.4456,1.5471 C87.3076,1.5471 87.9826,1.7721 88.4546,2.2161 C88.9236,2.6581 89.1616,3.2351 89.1616,3.9341 C89.1616,4.6691 88.9516,5.2661 88.5366,5.7081 L88.5366,5.7081 Z M83.1766,1.9821 C83.2836,1.9821 83.3606,2.0041 83.3976,2.0451 C83.4256,2.0761 83.4586,2.1451 83.4586,2.2991 L83.4586,10.8881 C83.4586,11.3971 83.3896,11.7521 83.2516,11.9431 C83.1146,12.1321 82.8336,12.2891 82.4206,12.4091 L81.9156,12.5411 L82.1836,13.3011 L87.1056,13.3011 C88.6996,13.3011 89.8796,12.9831 90.6136,12.3551 C91.3516,11.7241 91.7266,10.8561 91.7266,9.7761 C91.7266,9.1171 91.4996,8.5111 91.0516,7.9731 C90.6486,7.4901 90.0976,7.1151 89.4096,6.8541 C89.9256,6.5661 90.3286,6.1811 90.6086,5.7061 C90.9236,5.1711 91.0826,4.5631 91.0826,3.8991 C91.0826,2.8641 90.6796,2.0071 89.8816,1.3531 C89.0906,0.7031 87.8756,0.3741 86.2716,0.3741 C85.5156,0.3741 84.7196,0.4531 83.9046,0.6101 C83.0906,0.7671 82.4236,0.9471 81.9226,1.1461 L81.8346,1.1801 L82.0956,1.9821 L83.1766,1.9821 Z" id="Fill-27" fill="#080202"></path>
                <path d="M96.9633,7.2765 L98.4433,2.8215 L99.9713,7.2765 L96.9633,7.2765 Z M95.7493,13.3015 L96.1673,12.9485 L95.9753,12.5645 C95.8213,12.2675 95.7423,11.9255 95.7423,11.5485 C95.7423,11.1445 95.8753,10.5415 96.1373,9.7555 L96.5323,8.5545 L100.4053,8.5545 L101.2153,10.9205 C101.3383,11.2905 101.4013,11.5665 101.4013,11.7405 C101.4013,11.9225 101.3523,12.0585 101.2503,12.1545 C101.1413,12.2585 100.9543,12.3435 100.6943,12.4085 L100.1893,12.5405 L100.4573,13.3015 L104.4883,13.3015 L104.8083,12.9065 L104.7283,12.8435 C104.3173,12.5245 104.0023,12.2265 103.7883,11.9565 C103.5763,11.6885 103.3773,11.2895 103.1953,10.7685 L99.7013,0.6845 L99.6783,0.6165 L96.1803,0.6165 L95.9113,1.3775 L96.4183,1.5095 C96.6783,1.5745 96.8643,1.6605 96.9733,1.7635 C97.0753,1.8605 97.1253,1.9955 97.1253,2.1775 C97.1253,2.3495 97.0623,2.6265 96.9393,2.9965 L94.2093,10.8555 C94.0293,11.3715 93.8383,11.7335 93.6423,11.9305 C93.4453,12.1265 93.1213,12.2875 92.6783,12.4085 L92.1733,12.5405 L92.4423,13.3015 L95.7493,13.3015 Z" id="Fill-29" fill="#080202"></path>
                <path d="M104.3789,1.9435 C104.6169,2.2505 104.8959,2.6845 105.2059,3.2355 L107.9749,8.0985 L107.9749,9.7065 C107.9749,10.3785 107.9109,10.9265 107.7879,11.3375 C107.6639,11.7495 107.4579,12.1575 107.1759,12.5515 L106.9049,12.9265 L107.2099,13.3015 L111.1359,13.3015 L111.4049,12.5405 L110.8999,12.4085 C110.4839,12.2995 110.1979,12.1425 110.0499,11.9425 C109.9019,11.7405 109.8269,11.3865 109.8269,10.8885 L109.8269,7.9595 L112.5089,3.2005 C112.9209,2.4685 113.3319,1.8535 113.7329,1.3725 L114.0469,0.9965 L113.7379,0.6165 L110.3169,0.6165 L110.0479,1.3775 L110.5499,1.5085 C110.7289,1.5615 110.8849,1.6625 111.0169,1.8095 C111.1459,1.9545 111.2089,2.1265 111.2089,2.3345 C111.2089,2.5255 111.1429,2.7485 111.0119,2.9995 L109.1339,6.3555 L107.3429,3.2215 L107.0479,2.7265 C106.8579,2.4085 106.8189,2.2535 106.8189,2.1775 C106.8189,1.9955 106.8679,1.8605 106.9699,1.7635 C107.0789,1.6605 107.2659,1.5745 107.5259,1.5095 L108.0309,1.3775 L107.7629,0.6165 L103.7329,0.6165 L103.4119,1.0115 L103.4929,1.0745 C103.8439,1.3465 104.1419,1.6385 104.3789,1.9435" id="Fill-31" fill="#080202"></path>
                <mask id="mask-2" fill="white">
                    <use xlink:href="#path-1"></use>
                </mask>
                <g id="Clip-34"></g>
                <polygon id="Fill-33" fill="#080202" mask="url(#mask-2)" points="91.655 56.9968 118.907 56.9968 118.907 55.8678 91.655 55.8678"></polygon>
                <polygon id="Fill-35" fill="#080202" mask="url(#mask-2)" points="91.429 54.4198 105.039 54.4198 105.039 53.2908 91.429 53.2908"></polygon>
                <polygon id="Fill-36" fill="#080202" mask="url(#mask-2)" points="3.3 56.9968 30.553 56.9968 30.553 55.8678 3.3 55.8678"></polygon>
                <polygon id="Fill-37" fill="#080202" mask="url(#mask-2)" points="17.169 54.4198 30.779 54.4198 30.779 53.2908 17.169 53.2908"></polygon>
                <path d="M39.9726,56.3102 C40.1576,56.2322 40.3266,56.1342 40.4796,56.0142 C40.6316,55.8942 40.7616,55.7632 40.8696,55.6202 C40.9766,55.4762 41.0606,55.3252 41.1206,55.1662 C41.1806,55.0082 41.2106,54.8482 41.2106,54.6862 C41.2106,54.5072 41.1656,54.3712 41.0756,54.2782 C40.9866,54.1852 40.8816,54.1402 40.7616,54.1402 C40.6006,54.1402 40.4626,54.1842 40.3486,54.2742 C40.2356,54.3642 40.1426,54.4802 40.0716,54.6242 C39.9996,54.7682 39.9466,54.9272 39.9136,55.1032 C39.8816,55.2802 39.8646,55.4552 39.8646,55.6282 C39.8646,55.7362 39.8746,55.8502 39.8956,55.9692 C39.9176,56.0892 39.9426,56.2032 39.9726,56.3102 M40.2416,56.8932 C40.3676,57.0672 40.5286,57.2062 40.7256,57.3102 C40.9236,57.4152 41.1656,57.4672 41.4526,57.4672 C41.7456,57.4672 42.0116,57.3972 42.2506,57.2572 C42.4906,57.1162 42.7086,56.9322 42.9056,56.7052 C43.1026,56.4772 43.2796,56.2242 43.4346,55.9422 C43.5906,55.6612 43.7306,55.3802 43.8566,55.0992 C43.8866,55.0332 43.9286,54.9842 43.9826,54.9512 C44.0356,54.9182 44.0956,54.9022 44.1616,54.9022 C44.2636,54.9022 44.3456,54.9382 44.4086,55.0102 C44.4716,55.0812 44.5026,55.1592 44.5026,55.2432 C44.5026,55.2732 44.4996,55.2982 44.4936,55.3192 C44.4876,55.3402 44.4786,55.3622 44.4666,55.3862 C44.0546,56.2952 43.6036,56.9802 43.1166,57.4402 C42.6286,57.9012 42.0776,58.1372 41.4616,58.1492 C41.0666,58.1492 40.7256,58.0732 40.4386,57.9202 C40.1516,57.7682 39.9156,57.5712 39.7306,57.3292 C39.5446,57.0862 39.4076,56.8122 39.3176,56.5082 C39.2276,56.2032 39.1826,55.8972 39.1826,55.5932 C39.1826,55.2882 39.2206,55.0062 39.2956,54.7492 C39.3696,54.4922 39.4776,54.2682 39.6186,54.0772 C39.7586,53.8852 39.9266,53.7362 40.1206,53.6282 C40.3146,53.5202 40.5286,53.4672 40.7616,53.4672 C40.8996,53.4672 41.0356,53.4952 41.1696,53.5522 C41.3046,53.6092 41.4256,53.6892 41.5336,53.7942 C41.6406,53.8982 41.7276,54.0262 41.7936,54.1752 C41.8596,54.3252 41.8916,54.4952 41.8916,54.6862 C41.8916,54.9322 41.8506,55.1622 41.7666,55.3772 C41.6826,55.5932 41.5676,55.7932 41.4216,55.9782 C41.2746,56.1642 41.0996,56.3342 40.8966,56.4902 C40.6936,56.6452 40.4746,56.7802 40.2416,56.8932" id="Fill-38" fill="#080202" mask="url(#mask-2)"></path>
                <path d="M44.8525,54.5612 C44.8165,54.6572 44.7725,54.7642 44.7225,54.8842 C44.6715,55.0042 44.6135,55.1292 44.5475,55.2612 C44.4935,55.3622 44.4385,55.4412 44.3815,55.4982 C44.3245,55.5552 44.2515,55.5832 44.1615,55.5832 C44.0605,55.5832 43.9785,55.5522 43.9195,55.4892 C43.8595,55.4272 43.8295,55.3532 43.8295,55.2692 C43.8295,55.2402 43.8325,55.2142 43.8385,55.1932 C43.8445,55.1722 43.8595,55.1382 43.8835,55.0902 C44.0395,54.7912 44.1545,54.5302 44.2285,54.3052 C44.3035,54.0812 44.3645,53.8472 44.4125,53.6012 C44.3715,53.4632 44.3405,53.3472 44.3235,53.2512 C44.3055,53.1562 44.2965,53.0572 44.2965,52.9552 C44.2965,52.7582 44.3375,52.5982 44.4215,52.4762 C44.5055,52.3532 44.6225,52.2912 44.7715,52.2912 C44.9095,52.2912 45.0185,52.3512 45.0995,52.4712 C45.1795,52.5912 45.2205,52.7372 45.2205,52.9112 C45.2205,53.0062 45.2115,53.1022 45.1935,53.1982 C45.1755,53.2932 45.1515,53.4132 45.1215,53.5562 C45.2595,53.8972 45.3965,54.1992 45.5345,54.4622 C45.6715,54.7262 45.7945,54.9662 45.9015,55.1852 C46.0095,55.4032 46.0975,55.6072 46.1665,55.7992 C46.2355,55.9902 46.2695,56.1822 46.2695,56.3732 C46.2695,56.6242 46.2185,56.8632 46.1175,57.0912 C46.0155,57.3182 45.8485,57.5092 45.6145,57.6652 C45.6445,57.6712 45.6745,57.6742 45.7045,57.6742 L45.7945,57.6742 C46.1355,57.6742 46.4495,57.5962 46.7365,57.4402 C47.0235,57.2852 47.2825,57.0832 47.5125,56.8352 C47.7425,56.5872 47.9475,56.3112 48.1265,56.0102 C48.3065,55.7082 48.4615,55.4072 48.5935,55.1082 C48.6525,54.9712 48.7365,54.9022 48.8445,54.9022 C48.9455,54.9022 49.0245,54.9382 49.0815,55.0102 C49.1385,55.0822 49.1665,55.1592 49.1665,55.2432 C49.1665,55.2902 49.1585,55.3352 49.1405,55.3772 C49.0745,55.5392 48.9895,55.7232 48.8845,55.9292 C48.7805,56.1352 48.6545,56.3482 48.5075,56.5662 C48.3615,56.7842 48.1925,56.9982 48.0005,57.2072 C47.8095,57.4162 47.5965,57.6032 47.3595,57.7682 C47.1235,57.9332 46.8645,58.0642 46.5835,58.1632 C46.3025,58.2612 45.9945,58.3112 45.6595,58.3112 C45.2595,58.3112 44.8865,58.2402 44.5425,58.1002 C44.1985,57.9592 43.9195,57.7282 43.7045,57.4052 C43.6685,57.3512 43.6505,57.2942 43.6505,57.2342 C43.6505,57.1442 43.6855,57.0652 43.7535,56.9972 C43.8225,56.9282 43.9015,56.8942 43.9915,56.8942 C44.0865,56.8942 44.1675,56.9262 44.2335,56.9922 C44.2395,57.0042 44.2605,57.0232 44.2965,57.0502 C44.3315,57.0772 44.3755,57.1072 44.4265,57.1402 C44.4775,57.1732 44.5375,57.2022 44.6055,57.2252 C44.6745,57.2492 44.7445,57.2612 44.8165,57.2612 C44.9595,57.2612 45.0815,57.2312 45.1795,57.1712 C45.2785,57.1122 45.3575,57.0382 45.4175,56.9522 C45.4775,56.8652 45.5205,56.7722 45.5475,56.6732 C45.5745,56.5752 45.5875,56.4902 45.5875,56.4182 C45.5875,56.2692 45.5635,56.1192 45.5165,55.9692 C45.4685,55.8202 45.4075,55.6702 45.3325,55.5212 C45.2575,55.3722 45.1765,55.2172 45.0905,55.0592 C45.0035,54.9002 44.9245,54.7342 44.8525,54.5612" id="Fill-39" fill="#080202" mask="url(#mask-2)"></path>
                <path d="M49.8667,47.7794 C49.8127,47.7794 49.7357,47.8384 49.6337,47.9544 C49.5317,48.0714 49.4297,48.2814 49.3287,48.5874 L50.1897,48.5874 C50.1597,48.3354 50.1167,48.1384 50.0597,47.9944 C50.0027,47.8514 49.9387,47.7794 49.8667,47.7794 M49.0327,54.4894 C49.2117,54.0944 49.3747,53.6684 49.5217,53.2114 C49.6677,52.7534 49.7937,52.2914 49.8987,51.8254 C50.0027,51.3584 50.0837,50.9014 50.1407,50.4524 C50.1977,50.0044 50.2257,49.5914 50.2257,49.2154 L49.1667,49.2154 C49.0837,49.5854 49.0157,50.0444 48.9657,50.5924 C48.9147,51.1384 48.8887,51.8044 48.8887,52.5874 C48.8887,53.0244 48.9017,53.3904 48.9247,53.6864 C48.9487,53.9824 48.9847,54.2504 49.0327,54.4894 M55.7877,48.9014 C55.7877,48.9964 55.7547,49.0724 55.6887,49.1294 C55.6227,49.1864 55.5417,49.2154 55.4467,49.2154 L50.8987,49.2154 L50.8987,49.3134 C50.8987,49.6784 50.8717,50.0674 50.8177,50.4794 C50.7637,50.8924 50.6907,51.3034 50.5977,51.7134 C50.5057,52.1224 50.4007,52.5214 50.2837,52.9104 C50.1677,53.2994 50.0477,53.6584 49.9257,53.9874 C49.8027,54.3164 49.6817,54.6014 49.5617,54.8434 C49.4427,55.0864 49.3347,55.2664 49.2387,55.3864 C49.3167,55.6614 49.4087,55.9174 49.5167,56.1534 C49.6247,56.3894 49.7457,56.5954 49.8807,56.7724 C50.0147,56.9484 50.1597,57.0874 50.3157,57.1894 C50.4707,57.2914 50.6377,57.3424 50.8177,57.3424 C51.0277,57.3424 51.2347,57.2534 51.4417,57.0774 C51.6477,56.9014 51.8387,56.6914 52.0147,56.4494 C52.1917,56.2074 52.3467,55.9624 52.4817,55.7144 C52.6167,55.4664 52.7137,55.2664 52.7737,55.1174 C52.8327,54.9734 52.9377,54.9024 53.0877,54.9024 C53.1887,54.9024 53.2707,54.9384 53.3337,55.0094 C53.3967,55.0814 53.4287,55.1594 53.4287,55.2424 C53.4287,55.2844 53.4187,55.3264 53.4017,55.3684 C53.3837,55.4104 53.3397,55.5064 53.2707,55.6554 C53.2027,55.8044 53.1127,55.9784 53.0017,56.1754 C52.8907,56.3734 52.7627,56.5804 52.6167,56.7994 C52.4697,57.0174 52.3057,57.2164 52.1227,57.3954 C51.9407,57.5754 51.7447,57.7244 51.5347,57.8444 C51.3257,57.9644 51.1047,58.0234 50.8717,58.0234 C50.4587,58.0234 50.0877,57.8894 49.7597,57.6204 C49.4297,57.3514 49.1507,56.9744 48.9207,56.4894 C48.6907,56.0054 48.5157,55.4314 48.3957,54.7674 C48.2757,54.1034 48.2167,53.3774 48.2167,52.5874 C48.2167,52.3904 48.2197,52.1584 48.2247,51.8924 C48.2307,51.6264 48.2427,51.3454 48.2617,51.0494 C48.2797,50.7534 48.3057,50.4484 48.3417,50.1344 C48.3777,49.8204 48.4257,49.5134 48.4857,49.2154 L45.2647,49.2154 C45.1697,49.2154 45.0887,49.1864 45.0227,49.1294 C44.9567,49.0724 44.9247,48.9964 44.9247,48.9014 C44.9247,48.8054 44.9567,48.7294 45.0227,48.6724 C45.0887,48.6154 45.1697,48.5874 45.2647,48.5874 L48.6377,48.5874 C48.6977,48.3714 48.7677,48.1744 48.8487,47.9944 C48.9297,47.8154 49.0227,47.6594 49.1267,47.5284 C49.2317,47.3974 49.3477,47.2934 49.4767,47.2184 C49.6057,47.1444 49.7467,47.1064 49.9027,47.1064 C50.0527,47.1064 50.1817,47.1444 50.2927,47.2184 C50.4037,47.2934 50.4977,47.3974 50.5757,47.5284 C50.6537,47.6594 50.7147,47.8154 50.7597,47.9944 C50.8037,48.1744 50.8387,48.3714 50.8627,48.5874 L55.4467,48.5874 C55.5417,48.5874 55.6227,48.6154 55.6887,48.6724 C55.7547,48.7294 55.7877,48.8054 55.7877,48.9014" id="Fill-40" fill="#080202" mask="url(#mask-2)"></path>
                <path d="M54.603,57.6202 C54.603,57.7582 54.557,57.8722 54.464,57.9652 C54.372,58.0582 54.256,58.1042 54.119,58.1042 C53.981,58.1042 53.866,58.0582 53.773,57.9652 C53.681,57.8722 53.634,57.7582 53.634,57.6202 C53.634,57.4882 53.681,57.3762 53.773,57.2842 C53.866,57.1912 53.981,57.1442 54.119,57.1442 C54.256,57.1442 54.372,57.1912 54.464,57.2842 C54.557,57.3762 54.603,57.4882 54.603,57.6202" id="Fill-41" fill="#080202" mask="url(#mask-2)"></path>
                <path d="M61.9096,56.7779 C61.9796,57.0389 62.1036,57.2869 62.2806,57.5199 L62.4186,57.7109 L62.2806,57.8799 L59.7476,57.8799 L59.6196,57.5199 L60.0766,57.4029 C60.2666,57.3539 60.4086,57.2989 60.4996,57.2389 C60.5916,57.1789 60.6566,57.0899 60.6956,56.9739 C60.7346,56.8579 60.7546,56.6899 60.7546,56.4699 L60.7546,51.3619 L59.4506,52.1889 C59.3026,52.1599 59.1626,52.0759 59.0316,51.9339 C58.9016,51.7929 58.7966,51.6369 58.7196,51.4679 L61.6556,50.1009 C61.8246,50.1429 61.9656,50.2739 62.0786,50.4929 L61.8036,50.6729 L61.8036,55.7499 C61.8036,56.1739 61.8386,56.5169 61.9096,56.7779" id="Fill-42" fill="#080202" mask="url(#mask-2)"></path>
                <path d="M67.5854,53.6988 C67.8354,53.3708 67.9614,52.9768 67.9614,52.5168 C67.9614,52.0578 67.8454,51.6578 67.6114,51.3198 C67.3784,50.9798 67.0534,50.8108 66.6364,50.8108 C66.1914,50.8108 65.8474,50.9788 65.6034,51.3138 C65.3594,51.6498 65.2374,52.0478 65.2374,52.5068 C65.2374,52.9658 65.3504,53.3618 65.5774,53.6938 C65.8024,54.0258 66.1174,54.1918 66.5204,54.1918 C66.9794,54.1918 67.3344,54.0278 67.5854,53.6988 M68.5704,51.2818 C69.0124,52.0558 69.2334,53.0538 69.2334,54.2768 C69.2334,54.9908 69.1244,55.6298 68.9044,56.1948 C68.6864,56.7608 68.3524,57.2068 67.9034,57.5358 C67.4544,57.8648 66.9014,58.0288 66.2444,58.0288 C65.8414,58.0288 65.4794,57.9648 65.1584,57.8378 C64.8364,57.7108 64.5854,57.5338 64.4054,57.3078 C64.2254,57.0818 64.1354,56.8278 64.1354,56.5448 C64.1354,56.2548 64.2344,56.0218 64.4324,55.8448 C64.6294,55.6688 64.8844,55.5798 65.1954,55.5798 C65.3504,55.5798 65.4284,55.6228 65.4284,55.7068 C65.4284,55.7288 65.4014,55.7828 65.3484,55.8718 C65.2954,55.9598 65.2524,56.0518 65.2164,56.1468 C65.1814,56.2428 65.1634,56.3538 65.1634,56.4808 C65.1634,56.7708 65.2624,57.0008 65.4604,57.1698 C65.6584,57.3398 65.9164,57.4248 66.2344,57.4248 C66.8914,57.4248 67.3684,57.1238 67.6654,56.5238 C67.9614,55.9228 68.1094,55.1848 68.1094,54.3078 C68.1094,54.0468 68.1064,53.8558 68.0994,53.7358 C67.9154,54.1108 67.6454,54.4068 67.2884,54.6268 C66.9314,54.8448 66.5134,54.9548 66.0324,54.9548 C65.5944,54.9548 65.2194,54.8528 64.9094,54.6478 C64.5984,54.4428 64.3634,54.1708 64.2044,53.8318 C64.0454,53.4918 63.9654,53.1278 63.9654,52.7398 C63.9654,52.2948 64.0644,51.8718 64.2624,51.4728 C64.4604,51.0738 64.7534,50.7488 65.1424,50.4978 C65.5304,50.2468 66.0014,50.1218 66.5514,50.1218 C67.4564,50.1218 68.1294,50.5088 68.5704,51.2818" id="Fill-43" fill="#080202" mask="url(#mask-2)"></path>
                <path d="M74.4321,53.6988 C74.6831,53.3708 74.8081,52.9768 74.8081,52.5168 C74.8081,52.0578 74.6921,51.6578 74.4581,51.3198 C74.2251,50.9798 73.9001,50.8108 73.4841,50.8108 C73.0381,50.8108 72.6941,50.9788 72.4501,51.3138 C72.2061,51.6498 72.0841,52.0478 72.0841,52.5068 C72.0841,52.9658 72.1971,53.3618 72.4241,53.6938 C72.6501,54.0258 72.9641,54.1918 73.3671,54.1918 C73.8261,54.1918 74.1811,54.0278 74.4321,53.6988 M75.4181,51.2818 C75.8591,52.0558 76.0801,53.0538 76.0801,54.2768 C76.0801,54.9908 75.9711,55.6298 75.7521,56.1948 C75.5331,56.7608 75.1991,57.2068 74.7501,57.5358 C74.3011,57.8648 73.7481,58.0288 73.0911,58.0288 C72.6891,58.0288 72.3271,57.9648 72.0051,57.8378 C71.6831,57.7108 71.4331,57.5338 71.2521,57.3078 C71.0721,57.0818 70.9821,56.8278 70.9821,56.5448 C70.9821,56.2548 71.0811,56.0218 71.2791,55.8448 C71.4761,55.6688 71.7311,55.5798 72.0421,55.5798 C72.1971,55.5798 72.2751,55.6228 72.2751,55.7068 C72.2751,55.7288 72.2491,55.7828 72.1961,55.8718 C72.1431,55.9598 72.0991,56.0518 72.0631,56.1468 C72.0281,56.2428 72.0101,56.3538 72.0101,56.4808 C72.0101,56.7708 72.1091,57.0008 72.3071,57.1698 C72.5051,57.3398 72.7631,57.4248 73.0811,57.4248 C73.7381,57.4248 74.2151,57.1238 74.5121,56.5238 C74.8081,55.9228 74.9571,55.1848 74.9571,54.3078 C74.9571,54.0468 74.9531,53.8558 74.9461,53.7358 C74.7621,54.1108 74.4921,54.4068 74.1351,54.6268 C73.7791,54.8448 73.3601,54.9548 72.8791,54.9548 C72.4411,54.9548 72.0671,54.8528 71.7561,54.6478 C71.4451,54.4428 71.2101,54.1708 71.0511,53.8318 C70.8921,53.4918 70.8121,53.1278 70.8121,52.7398 C70.8121,52.2948 70.9111,51.8718 71.1091,51.4728 C71.3071,51.0738 71.6001,50.7488 71.9891,50.4978 C72.3771,50.2468 72.8481,50.1218 73.3991,50.1218 C74.3031,50.1218 74.9761,50.5088 75.4181,51.2818" id="Fill-44" fill="#080202" mask="url(#mask-2)"></path>
                <path d="M79.3398,50.8585 C79.1378,50.9755 78.9808,51.1285 78.8678,51.3195 C78.7548,51.5105 78.6978,51.7115 78.6978,51.9235 C78.6978,52.2135 78.8018,52.4695 79.0108,52.6915 C79.2188,52.9145 79.5818,53.1385 80.0968,53.3645 L80.7548,53.6615 C80.9878,53.3935 81.1638,53.1195 81.2848,52.8405 C81.4048,52.5615 81.4648,52.2915 81.4648,52.0295 C81.4648,51.6335 81.3378,51.3105 81.0828,51.0595 C80.8288,50.8095 80.4788,50.6835 80.0338,50.6835 C79.7728,50.6835 79.5408,50.7415 79.3398,50.8585 M78.7408,55.2305 C78.6068,55.5265 78.5388,55.8135 78.5388,56.0885 C78.5388,56.4985 78.6718,56.8315 78.9368,57.0855 C79.2018,57.3395 79.5678,57.4665 80.0338,57.4665 C80.5068,57.4665 80.8918,57.3585 81.1888,57.1435 C81.4858,56.9275 81.6338,56.6335 81.6338,56.2585 C81.6338,55.9125 81.5458,55.6405 81.3688,55.4425 C81.1928,55.2445 80.8918,55.0535 80.4678,54.8705 L79.3338,54.3725 C79.0728,54.6475 78.8748,54.9335 78.7408,55.2305 M82.2438,53.1055 C81.9998,53.4205 81.6868,53.6935 81.3058,53.9265 C81.8148,54.1885 82.1908,54.4865 82.4348,54.8225 C82.6778,55.1575 82.7998,55.5455 82.7998,55.9835 C82.7998,56.3925 82.6888,56.7545 82.4658,57.0695 C82.2438,57.3835 81.9238,57.6275 81.5068,57.8005 C81.0898,57.9735 80.5958,58.0605 80.0228,58.0605 C79.2458,58.0605 78.6168,57.9025 78.1368,57.5885 C77.6558,57.2745 77.4158,56.7855 77.4158,56.1205 C77.4158,55.3585 77.8858,54.6935 78.8258,54.1285 C78.4158,53.9015 78.1098,53.6405 77.9088,53.3435 C77.7078,53.0465 77.6068,52.6795 77.6068,52.2415 C77.6068,51.8675 77.6948,51.5155 77.8718,51.1865 C78.0478,50.8585 78.3198,50.5935 78.6878,50.3915 C79.0548,50.1915 79.5038,50.0895 80.0338,50.0895 C80.7968,50.0895 81.4168,50.2495 81.8938,50.5665 C82.3708,50.8845 82.6098,51.3765 82.6098,52.0405 C82.6098,52.4355 82.4868,52.7915 82.2438,53.1055" id="Fill-45" fill="#080202" mask="url(#mask-2)"></path>
            </g>
        </g>
    </g>
</svg>