<?xml version="1.0" encoding="UTF-8"?>
<svg width="2951px" height="26px" viewBox="0 0 2951 26" version="1.1" xmlns="http://www.w3.org/2000/svg" xmlns:xlink="http://www.w3.org/1999/xlink">
    <!-- Generator: Sketch 47.1 (45422) - http://www.bohemiancoding.com/sketch -->
    <title>Page 1</title>
    <desc>Created with Sketch.</desc>
    <defs></defs>
    <g id="Welcome" stroke="none" stroke-width="1" fill="none" fill-rule="evenodd">
        <path d="M0,23.4287246 C58.9334929,18.9050359 117.695027,31.3747187 195.182184,21.2027491 C272.670396,11.0307794 357.908378,14.3676328 397.695317,13.256755 C463.765646,11.4137316 527.933874,13.7578632 620.845669,19.2004261 C763.323927,27.5451968 886.536419,18.157066 943.926498,18.156011 C1001.31552,18.1539011 1065.33184,20.7723235 1133.53003,19.0938746 C1201.72928,17.4143708 1227.21089,25.6895139 1305.7604,18.1444064 C1384.30991,10.5992989 1400.94986,21.1647703 1495.76376,18.1380766 C1590.57977,15.1124379 1615.58349,31.1120325 1676.49715,21.6553289 C1751.31314,10.0401676 1791.50729,19.7869864 1859.02503,17.677057 C1926.54277,15.5671276 1989.84065,15.5671276 2038.36903,15.5671276 C2086.89741,15.5671276 2179.7343,15.5671276 2236.70239,11.3472689 C2293.67049,7.12741006 2329.53929,9.23733946 2378.06766,11.3472689 C2426.59604,13.4571982 2570.42043,14.3454785 2621.74657,7.92918323 C2697.71142,-1.56655401 2839.08723,-1.31230752 2950.91349,9.23733946" id="Page-1" stroke="#F3F3F3"></path>
    </g>
</svg>