<?xml version="1.0" encoding="UTF-8"?>
<svg width="3304px" height="502px" viewBox="0 0 3304 502" version="1.1" xmlns="http://www.w3.org/2000/svg" xmlns:xlink="http://www.w3.org/1999/xlink">
    <!-- Generator: Sketch 47.1 (45422) - http://www.bohemiancoding.com/sketch -->
    <title>Page 1</title>
    <desc>Created with Sketch.</desc>
    <defs>
        <polygon id="path-1" points="0 501.114 3304 501.114 3304 -5.68434189e-14 0 -5.68434189e-14"></polygon>
    </defs>
    <g id="Welcome" stroke="none" stroke-width="1" fill="none" fill-rule="evenodd">
        <g id="Page-1">
            <mask id="mask-2" fill="white">
                <use xlink:href="#path-1"></use>
            </mask>
            <g id="Clip-2"></g>
            <path d="M3304,5.114 C3304,5.114 3236,-2.886 3140,13.114 C3044,29.114 3028,29.114 2812,3.114 C2717.331,-8.282 2654,15.114 2620,17.114 C2586,19.114 2554,21.114 2504,23.114 C2454,25.114 2364,17.114 2286,33.114 C2208,49.114 2116,61.114 1995.492,43.505 C1827.386,18.942 1766.68,38.509 1667.54,22.864 C1568.399,7.22 1550.668,27.152 1494.893,27.515 C1439.116,27.879 1377.992,32.062 1331.562,38.509 C1285.133,44.955 1222.874,33.94 1161.97,22.864 C1101.066,11.789 1000.984,27.515 930.653,27.515 C860.322,27.515 754.424,13.556 673.243,8.615 C550,1.114 521.728,7.889 426,15.114 C320,23.114 269.898,16.059 210,9.114 C72,-6.886 0,17.114 0,17.114 L0,501.114 L3304,501.114 L3304,5.114 Z" id="Fill-1" fill="#FEFEFE" mask="url(#mask-2)"></path>
        </g>
    </g>
</svg>